<?xml version="1.0" standalone="no"?>
<!DOCTYPE svg PUBLIC "-//W3C//DTD SVG 20010904//EN"
 "http://www.w3.org/TR/2001/REC-SVG-20010904/DTD/svg10.dtd">
<svg version="1.0" xmlns="http://www.w3.org/2000/svg"
 width="500.000000pt" height="500.000000pt" viewBox="0 0 500.000000 500.000000"
 preserveAspectRatio="xMidYMid meet">

<g transform="translate(0.000000,500.000000) scale(0.100000,-0.100000)"
fill="#000000" stroke="none">
<path d="M2488 4005 c-2 -47 1 -74 7 -72 24 8 34 147 11 147 -11 0 -15 -18
-18 -75z"/>
<path d="M2272 4054 c-45 -31 -17 -104 39 -104 39 0 62 23 62 60 0 54 -53 78
-101 44z m67 -8 c7 -8 11 -30 9 -48 -3 -29 -6 -33 -33 -33 -24 0 -31 5 -39 32
-14 51 32 87 63 49z"/>
<path d="M2580 4020 c0 -38 4 -52 19 -60 23 -12 41 -13 58 -2 15 10 34 102 22
102 -5 0 -9 -15 -9 -33 0 -41 -20 -70 -46 -65 -16 3 -19 12 -18 56 1 38 -2 52
-12 52 -10 0 -14 -14 -14 -50z"/>
<path d="M2741 4005 c-6 -23 -13 -50 -17 -59 -4 -10 -1 -16 9 -16 10 0 19 17
27 50 12 51 26 63 37 34 3 -10 0 -22 -8 -28 -16 -12 -14 -42 3 -63 17 -21 30
-15 17 8 -8 16 -8 27 1 45 17 30 8 49 -28 62 -30 10 -30 10 -41 -33z"/>
<path d="M2164 4015 c4 -15 10 -40 13 -56 3 -16 12 -29 19 -29 14 0 14 5 -6
79 -3 14 -12 27 -19 29 -10 3 -12 -2 -7 -23z"/>
<path d="M2018 3990 c-15 -9 -15 -13 2 -57 10 -27 25 -49 34 -51 14 -3 13 2
-4 40 -11 24 -20 49 -20 56 0 15 42 16 58 0 16 -16 15 -60 0 -77 -11 -11 -9
-11 9 -2 52 27 30 101 -30 101 -17 0 -39 -5 -49 -10z"/>
<path d="M2894 3984 c-4 -10 -13 -34 -20 -53 -17 -41 -17 -41 -1 -41 16 0 49
92 37 104 -6 6 -12 2 -16 -10z"/>
<path d="M2959 3914 l-25 -53 23 -10 c30 -14 44 -14 21 0 -17 9 -16 13 7 59
17 34 21 49 12 52 -7 3 -23 -18 -38 -48z"/>
<path d="M1930 3945 c0 -3 9 -22 20 -42 11 -21 20 -32 20 -25 0 15 -28 72 -35
72 -3 0 -5 -2 -5 -5z"/>
<path d="M3028 3940 c20 -22 15 -67 -10 -84 -27 -19 -18 -32 11 -17 46 25 47
68 4 101 -15 12 -16 12 -5 0z"/>
<path d="M1856 3911 c-8 -12 16 -62 39 -81 19 -16 66 -4 73 20 4 11 1 10 -12
-3 -26 -25 -33 -22 -65 29 -16 27 -31 42 -35 35z"/>
<path d="M3100 3836 c-19 -29 -26 -47 -19 -51 6 -4 11 -5 13 -4 62 98 63 99
46 99 -5 0 -23 -20 -40 -44z"/>
<path d="M1755 3842 c-17 -15 -24 -23 -17 -17 14 9 29 -4 67 -59 8 -10 18 -15
24 -11 8 4 1 20 -20 46 -17 22 -28 46 -25 54 7 20 6 19 -29 -13z"/>
<path d="M2265 3835 c-319 -83 -541 -307 -616 -623 -29 -118 -23 -331 11 -437
60 -187 183 -353 339 -459 38 -26 60 -50 73 -78 27 -61 100 -159 146 -195 23
-18 43 -33 46 -33 3 0 6 164 6 364 l0 365 23 3 c12 2 22 10 22 18 0 11 -13 16
-49 18 -27 2 -55 1 -62 -2 -17 -6 -7 -36 12 -36 12 0 14 -54 14 -326 0 -231
-3 -323 -11 -318 -28 17 -101 132 -128 203 -37 95 -67 244 -76 374 -6 86 -9
97 -26 97 -14 0 -19 -7 -19 -27 1 -41 17 -201 25 -248 l7 -40 -47 45 c-191
184 -264 490 -177 744 42 123 84 188 187 291 149 149 293 209 505 209 135 0
232 -23 345 -82 85 -45 207 -158 264 -245 186 -288 153 -658 -81 -900 -51 -53
-59 -58 -54 -35 8 38 26 206 26 251 0 29 -4 37 -19 37 -16 0 -19 -12 -25 -97
-19 -252 -76 -430 -176 -543 l-39 -45 -1 326 c0 324 0 327 21 332 12 3 19 12
17 19 -3 9 -23 13 -61 13 -60 0 -77 -13 -39 -30 l22 -10 0 -362 c0 -200 3
-363 6 -363 34 0 185 185 200 246 4 14 26 36 57 55 162 99 306 303 357 503 27
108 28 289 0 403 -76 319 -325 560 -650 629 -104 22 -269 17 -375 -11z m415
-35 c220 -62 405 -211 509 -410 56 -106 82 -204 88 -336 13 -250 -71 -452
-261 -631 -48 -46 -92 -83 -97 -83 -26 0 12 64 81 135 120 124 184 240 214
387 65 317 -78 645 -352 808 -37 21 -110 53 -162 71 -87 29 -106 32 -220 32
-136 0 -186 -9 -299 -54 -298 -119 -486 -414 -468 -734 7 -127 26 -196 83
-313 36 -74 63 -111 134 -185 80 -84 120 -147 92 -147 -22 0 -184 165 -228
232 -157 235 -176 555 -49 807 114 228 342 395 600 441 78 14 250 4 335 -20z"/>
<path d="M3172 3797 c-27 -29 -28 -48 -2 -78 20 -23 21 -23 8 -1 -31 53 51
111 86 60 9 -12 16 -17 16 -11 0 16 -49 53 -70 53 -9 0 -26 -10 -38 -23z"/>
<path d="M1650 3765 c-6 -8 -9 -23 -5 -36 6 -18 12 -21 46 -16 21 3 42 1 45
-4 8 -14 -17 -41 -33 -35 -7 3 -13 1 -13 -4 0 -17 26 -11 44 9 12 13 15 27 11
41 -6 18 -13 21 -48 18 -46 -3 -63 16 -25 31 15 6 17 10 7 10 -9 1 -22 -6 -29
-14z"/>
<path d="M3215 3700 c-16 -7 -17 -9 -3 -9 9 -1 20 4 23 9 7 11 7 11 -20 0z"/>
<path d="M3288 3698 c-39 -31 -20 -97 32 -111 43 -11 95 67 58 89 -7 4 -8 3
-4 -5 10 -16 -18 -58 -44 -66 -25 -8 -50 10 -50 35 0 23 49 63 67 55 8 -2 11
0 8 5 -9 14 -48 12 -67 -2z"/>
<path d="M1575 3690 c-3 -6 1 -7 9 -4 18 7 21 14 7 14 -6 0 -13 -4 -16 -10z"/>
<path d="M2460 3678 c-9 -18 -21 -28 -35 -28 -32 0 -38 -11 -14 -28 16 -11 20
-21 15 -43 -6 -33 -6 -33 29 -17 19 9 28 9 37 0 20 -20 31 -13 24 14 -5 20 -2
30 14 41 25 17 18 33 -15 33 -17 0 -26 8 -33 28 l-9 27 -13 -27z"/>
<path d="M1553 3659 c-7 -7 2 -22 31 -49 l41 -39 23 21 c12 12 22 29 21 37 0
10 -4 8 -9 -6 -11 -27 -23 -29 -40 -8 -10 12 -10 18 1 33 12 15 11 15 -8 -1
-20 -18 -21 -18 -35 2 -10 14 -18 17 -25 10z"/>
<path d="M2454 3483 c4 -27 3 -54 -2 -60 -10 -15 -88 -21 -121 -9 -18 6 -22 5
-16 -5 6 -9 -4 -11 -46 -6 -166 21 -183 20 -209 -2 l-25 -21 33 16 c31 15 42
15 142 -2 60 -10 106 -22 103 -27 -3 -5 4 -4 15 2 11 6 43 11 71 11 48 0 51
-2 51 -25 0 -22 -4 -25 -35 -25 l-35 0 0 -155 0 -155 -212 0 c-117 0 -229 -5
-249 -10 -84 -23 -100 -145 -26 -190 39 -24 59 -25 102 -4 35 16 71 75 61 100
-9 24 -26 16 -42 -21 -18 -44 -54 -63 -89 -47 -56 26 -55 101 1 122 14 6 120
10 235 10 202 0 209 -1 209 -20 0 -19 -7 -20 -130 -20 -123 0 -130 -1 -130
-20 0 -19 7 -20 130 -20 123 0 130 -1 130 -20 0 -19 -7 -20 -116 -20 -105 0
-115 -2 -112 -17 3 -16 18 -18 116 -21 l114 -3 -6 -62 c-3 -34 -13 -226 -22
-426 l-16 -365 68 -133 c38 -73 71 -133 74 -133 3 0 36 59 74 132 l69 132 -17
400 c-9 221 -19 413 -21 428 l-4 27 112 3 c97 3 112 5 115 21 3 15 -7 17 -112
17 -109 0 -116 1 -116 20 0 18 8 20 133 22 109 3 132 6 132 18 0 12 -23 15
-132 18 -125 2 -133 4 -133 22 0 19 8 20 213 20 230 0 255 -5 271 -52 7 -20 5
-33 -7 -52 -35 -53 -108 -39 -120 23 -8 38 -37 43 -37 6 0 -40 21 -73 55 -90
43 -20 63 -19 101 4 44 27 60 71 45 122 -21 70 -34 74 -298 77 l-233 3 0 155
0 154 -32 0 c-28 0 -33 4 -34 25 -2 23 1 25 48 25 27 0 59 -5 70 -11 11 -6 18
-7 15 -2 -8 12 207 46 234 38 16 -5 19 -4 14 5 -8 13 -64 11 -204 -6 -42 -6
-52 -4 -46 5 6 10 2 11 -16 5 -13 -4 -44 -8 -68 -8 -41 0 -46 3 -53 29 -4 16
-3 36 3 47 14 26 4 48 -22 48 -19 0 -20 -4 -15 -47z m66 -208 c0 -11 -12 -15
-50 -15 -38 0 -50 4 -50 15 0 11 12 15 50 15 38 0 50 -4 50 -15z m0 -75 c0
-17 -7 -20 -50 -20 -43 0 -50 3 -50 20 0 17 7 20 50 20 43 0 50 -3 50 -20z m0
-80 c0 -17 -7 -20 -50 -20 -43 0 -50 3 -50 20 0 17 7 20 50 20 43 0 50 -3 50
-20z m0 -80 c0 -17 -7 -20 -50 -20 -43 0 -50 3 -50 20 0 17 7 20 50 20 43 0
50 -3 50 -20z m8 -82 c3 -16 -5 -18 -57 -18 -44 0 -61 4 -61 13 0 23 13 28 65
25 38 -2 51 -7 53 -20z m2 -78 c0 -18 -7 -20 -60 -20 -53 0 -60 2 -60 20 0 18
7 20 60 20 53 0 60 -2 60 -20z m4 -82 c3 -13 12 -203 22 -423 l17 -400 -39
-75 -39 -75 -3 448 c-2 439 -3 447 -22 447 -20 0 -20 -8 -20 -447 l0 -448 -41
73 -41 73 16 362 c9 199 19 390 22 425 l6 62 59 0 c53 0 59 -2 63 -22z"/>
<path d="M1960 3196 c0 -8 14 -26 31 -40 64 -54 209 -23 209 45 0 5 -54 9
-120 9 -97 0 -120 -3 -120 -14z"/>
<path d="M2740 3196 c0 -8 14 -26 31 -40 26 -22 40 -26 93 -26 53 0 67 4 90
25 51 48 39 55 -94 55 -97 0 -120 -3 -120 -14z"/>
<path d="M1448 2603 c-27 -31 -29 -57 -9 -97 20 -38 20 -38 0 -33 -10 3 -19 3
-19 1 0 -9 73 -150 91 -175 l18 -26 -24 5 c-34 6 -32 -5 13 -74 55 -85 144
-178 192 -199 41 -18 41 -19 21 -34 -20 -16 -19 -17 37 -62 141 -112 311 -209
392 -224 28 -5 20 2 -43 37 -229 128 -425 328 -538 552 -38 76 -47 102 -38
112 16 20 24 12 66 -69 108 -205 297 -394 506 -507 84 -45 237 -104 237 -90 0
8 -162 140 -173 140 -2 0 -8 -15 -12 -32 l-7 -33 -12 39 c-7 22 -29 57 -50 79
l-38 39 -19 -28 -19 -29 0 34 c0 31 -14 48 -138 170 -75 75 -179 191 -231 258
l-94 122 -18 -22 c-18 -22 -18 -22 -19 30 0 28 -3 59 -6 68 -6 15 -8 15 -24 0
-17 -16 -18 -14 -13 24 6 44 -4 52 -29 24z"/>
<path d="M3477 2578 c4 -39 3 -41 -10 -25 -19 23 -26 12 -34 -53 -5 -46 -8
-50 -21 -36 -13 13 -24 3 -95 -92 -45 -59 -147 -173 -228 -254 -107 -107 -149
-157 -154 -180 -7 -28 -8 -29 -18 -12 -5 10 -12 21 -14 23 -9 12 -83 -76 -89
-106 -7 -36 -24 -45 -24 -14 0 11 -4 22 -8 25 -5 3 -46 -25 -93 -61 -46 -37
-78 -68 -72 -70 18 -6 171 56 248 100 210 121 390 308 494 515 31 61 52 75 59
39 5 -25 -84 -190 -151 -280 -110 -149 -268 -286 -427 -371 -88 -47 -93 -53
-25 -35 86 23 227 106 369 216 61 47 67 55 48 60 -32 8 -27 15 28 45 54 30
152 141 196 222 l27 49 -33 -7 -34 -6 21 22 c21 24 36 50 77 134 24 49 24 52
6 47 -24 -6 -25 5 -5 31 19 26 19 66 -1 94 -26 37 -43 28 -37 -20z"/>
<path d="M3200 2067 c-176 -195 -391 -328 -617 -384 -49 -13 -63 -20 -63 -35
0 -22 13 -20 140 25 174 60 330 159 466 296 75 76 164 181 152 181 -2 0 -37
-38 -78 -83z"/>
<path d="M1735 2072 c104 -134 257 -257 419 -339 95 -48 262 -107 277 -97 25
15 1 31 -77 52 -106 27 -267 103 -371 174 -43 29 -127 102 -188 163 -94 94
-103 101 -60 47z"/>
<path d="M2220 1650 c0 -5 15 -10 33 -10 24 0 28 3 17 10 -20 13 -50 13 -50 0z"/>
<path d="M2690 1650 c-12 -8 -9 -10 13 -10 15 0 27 5 27 10 0 13 -20 13 -40 0z"/>
<path d="M1519 1521 c11 -7 13 -28 8 -102 -4 -50 -12 -98 -18 -105 -9 -11 -5
-14 22 -14 22 0 29 3 21 9 -9 5 -12 31 -10 92 l3 84 40 -92 c22 -51 43 -93 46
-93 4 0 21 37 39 83 18 45 37 86 42 92 4 5 9 -22 9 -60 2 -86 0 -98 -14 -107
-7 -4 8 -7 33 -7 25 1 38 3 29 6 -22 5 -36 187 -17 210 10 13 8 14 -12 11 -21
-2 -31 -17 -60 -90 -19 -48 -38 -88 -41 -88 -4 0 -23 41 -44 90 -34 81 -40 90
-64 90 -19 0 -22 -3 -12 -9z"/>
<path d="M1858 1523 c17 -6 17 -194 0 -211 -9 -9 7 -12 75 -12 l87 0 0 33 c-1
29 -2 30 -12 12 -16 -29 -28 -35 -70 -35 l-38 0 0 49 c0 40 3 50 20 54 11 3
27 -1 35 -10 13 -13 15 -11 14 19 0 18 -3 27 -6 21 -2 -7 -18 -13 -34 -13 -29
0 -30 1 -27 43 3 41 4 42 40 45 32 3 39 -1 52 -25 l15 -28 1 33 0 32 -82 -1
c-46 0 -77 -3 -70 -6z"/>
<path d="M2108 1523 c17 -6 17 -194 0 -211 -9 -9 -4 -12 23 -11 18 1 26 3 17
6 -15 4 -18 17 -18 89 0 46 2 84 4 84 2 0 34 -40 71 -90 37 -49 71 -90 76 -90
5 0 9 46 9 103 0 67 4 107 12 115 9 9 4 12 -22 11 -19 -1 -27 -3 -17 -6 14 -4
17 -17 17 -89 0 -49 -4 -83 -9 -80 -5 4 -38 44 -72 91 -45 60 -69 85 -84 84
-11 0 -14 -3 -7 -6z"/>
<path d="M2398 1523 c17 -6 17 -194 0 -211 -18 -18 93 -16 137 2 85 36 85 166
0 202 -19 8 -60 14 -92 13 -32 0 -52 -3 -45 -6z m121 -18 c36 -18 55 -64 47
-109 -8 -43 -56 -86 -97 -86 l-29 0 0 98 c0 54 3 102 7 105 11 11 42 8 72 -8z"/>
<path d="M2688 1523 c17 -6 17 -194 0 -211 -9 -9 -3 -12 28 -11 21 0 33 3 27
6 -9 3 -13 35 -13 108 0 73 4 105 13 108 6 3 -6 5 -28 5 -22 0 -34 -2 -27 -5z"/>
<path d="M2876 1448 c-16 -46 -37 -98 -47 -115 l-18 -33 32 0 c22 0 28 3 18 9
-9 6 -11 18 -7 35 6 25 10 27 54 24 46 -3 47 -4 47 -35 0 -31 2 -33 35 -33 20
0 30 4 23 8 -7 4 -31 56 -54 115 -22 59 -44 107 -48 107 -3 0 -19 -37 -35 -82z
m44 7 c5 -14 13 -37 16 -50 6 -23 3 -25 -30 -25 -20 0 -36 3 -36 7 0 11 32 93
37 93 2 0 8 -11 13 -25z"/>
<path d="M3088 1523 c17 -6 17 -194 0 -211 -9 -9 -3 -12 28 -11 21 0 33 3 27
6 -8 3 -13 23 -13 49 0 58 17 57 58 -6 20 -32 39 -50 52 -50 17 0 14 7 -20 52
l-40 53 25 12 c45 24 44 86 -2 104 -24 9 -139 12 -115 2z m106 -19 c32 -31 13
-77 -36 -88 -28 -6 -28 -6 -28 42 0 27 3 52 7 55 11 12 41 7 57 -9z"/>
<path d="M3370 1438 c-18 -51 -39 -103 -47 -115 -13 -22 -12 -23 19 -22 18 1
25 3 16 6 -21 5 -21 4 -8 37 8 23 15 26 55 26 40 0 45 -3 51 -26 4 -17 2 -29
-7 -35 -9 -6 1 -9 30 -9 37 0 42 2 30 13 -9 6 -33 58 -55 115 -21 56 -42 102
-45 102 -4 0 -21 -42 -39 -92z m69 -45 c1 -8 -12 -13 -35 -13 -33 0 -36 2 -30
25 3 13 11 37 17 52 l11 28 18 -40 c10 -22 19 -46 19 -52z"/>
</g>
</svg>
